<svg xmlns="http://www.w3.org/2000/svg" viewBox="0 0 193.94 62.42"><defs><style>.cls-1{fill:#034a94;}.cls-1,.cls-10,.cls-11,.cls-12,.cls-13,.cls-14,.cls-15,.cls-16,.cls-17,.cls-18,.cls-19,.cls-2,.cls-20,.cls-21,.cls-22,.cls-23,.cls-24,.cls-25,.cls-26,.cls-27,.cls-28,.cls-29,.cls-3,.cls-4,.cls-5,.cls-6,.cls-7,.cls-8,.cls-9{fill-rule:evenodd;}.cls-2{fill:#004490;}.cls-3{fill:#4864a4;}.cls-4{fill:#b7bada;}.cls-5{fill:#4863a4;}.cls-6{fill:#014492;}.cls-7{fill:#054491;}.cls-8{fill:#4963a4;}.cls-9{fill:#034490;}.cls-10{fill:#6475af;}.cls-11{fill:#003c8a;}.cls-12{fill:#004491;}.cls-13{fill:#b8bada;}.cls-14{fill:#4a64a5;}.cls-15{fill:#00418f;}.cls-16{fill:#4d66a6;}.cls-17{fill:#b6b8d9;}.cls-18{fill:#4a64a4;}.cls-19{fill:#4b64a4;}.cls-20{fill:#b9bbdb;}.cls-21{fill:#034491;}.cls-22{fill:#6575b0;}.cls-23{fill:#6977b1;}.cls-24{fill:#5f70ac;}.cls-25{fill:#dfdeec;}.cls-26{fill:#717db3;}.cls-27{fill:#6474ae;}.cls-28{fill:#6d79b2;}.cls-29{fill:#003d8b;}</style></defs><title>misw_logo</title><g id="レイヤー_2" data-name="レイヤー 2"><g id="レイヤー_1-2" data-name="レイヤー 1"><path class="cls-1" d="M140.77,46.17a8.67,8.67,0,0,0-5-9.06c-2.79-1.48-5.9-2-8.89-2.77-3.2-.87-6.42-1.65-9.63-2.48A13.66,13.66,0,0,1,112.85,30c-2.9-2-3.77-4.84-3.3-8.18.43-3.08,2.33-4.94,5.16-6a1.32,1.32,0,0,1,.3,0c6.85-.89,13.73-.22,20.59-.41,2.21-.06,4.43,0,6.64,0,.41,0,.9-.14,1.14.39l-2.88,5.41c-.12.23-.23.52-.58.43s-.17-.32-.16-.5c0-.75-.51-.75-1-.76H119.59a8.12,8.12,0,0,0-2.78.33,2.39,2.39,0,0,0-.92,4.12,8.66,8.66,0,0,0,3.87,2c4.26,1.18,8.54,2.31,12.82,3.43a25.05,25.05,0,0,1,7.33,3,13.26,13.26,0,0,1,6.52,11.56c0,2,0,4,0,5.94,0,.48-.06.72-.64.72q-18.62,0-37.24,0l-.22-.07,2.18-4.83a4.1,4.1,0,0,1,1.49-.13h27.62c1.44,0,1.44,0,1.45-1.39C140.92,45.37,141.4,45.92,140.77,46.17Z"/><path class="cls-2" d="M73.21,41.57,84.67,14.28c.79,3.26,1.53,6.26,2.26,9.26,2.18,9,4.34,18,6.54,27,.21.84,0,1-.78,1-1.51-.06-3,0-4.53,0-.24,0-.57.14-.69-.21s.13-.51.33-.68a1.55,1.55,0,0,0,.39-1.67L83.45,29c0-.13-.08-.25-.18-.55L73,52.92,62.23,28.57c-.5,2.23-.94,4.21-1.38,6.2l-3,13.65c-.18.8-.33,1.59.38,2.25a.55.55,0,0,1,.19.63c-.12.29-.41.18-.62.18-1.58,0-3.16,0-4.73,0-.7,0-.75-.19-.59-.81,1.38-5.53,2.73-11.06,4.09-16.6l4.65-18.94c0-.19.12-.37.25-.78Z"/><path class="cls-1" d="M154.31,18.52l7.38,20.83,9.88-24.09L181.52,39l2-5.87,4.74-13.68a2.71,2.71,0,0,0,.07-2.24c-.3-.89-.3-.89.62-.89,1.34,0,2.67,0,4,0,.6,0,.76.13.54.76a5.17,5.17,0,0,0-.58,2.17q-2.3,6.75-4.6,13.5C186.18,39,184,45.23,181.77,51.75L171.5,26.31,161.35,51.7c-.22-.58-.38-1-.52-1.36l-11-31.08c-.08-.22-.13-.45-.19-.67a6.48,6.48,0,0,0-.47-1.73c-.11-.39,0-.58.4-.58,1.57,0,3.14,0,4.71,0,.52,0,.57.32.27.65A1.32,1.32,0,0,0,154.31,18.52Z"/><path class="cls-2" d="M.38,46.57c-.68-2,.32-3,1.86-4.12C7.87,38.4,13.39,34.2,18.93,30c.68-.51,1.06-.73,1.44.28a4.32,4.32,0,0,0,1.69,2.09c.76.48.85.91.2,1.51a3.48,3.48,0,0,0-.32.39,3.7,3.7,0,0,1-.71,1.36C16.61,41.79,12,47.95,7.39,54c-1.1,1.44-1.3,1.46-2.81.39a10.66,10.66,0,0,1-4-6.09C.46,47.76.08,47.21.38,46.57Z"/><path class="cls-1" d="M103.55,49.76c.25.53,1.16.88.88,1.44s-1.14.21-1.74.23c-1.64,0-3.28,0-4.92,0-.22,0-.5.11-.63-.15a.55.55,0,0,1,.24-.7,2.21,2.21,0,0,0,.7-2q0-15.33,0-30.65a2.35,2.35,0,0,0-.19-1.37,1.24,1.24,0,0,0-.27-.53c-.25-.39-.14-.66.32-.67,1.93,0,3.85,0,5.78,0,.49,0,.54.3.24.66a1.18,1.18,0,0,0-.37.58l0,0c-.33.21-.17.55-.17.82q0,15.85,0,31.7C103.42,49.33,103.29,49.59,103.55,49.76Z"/><path class="cls-2" d="M15.49,55.65c-.67-.14-1.31.21-2,.17a1.78,1.78,0,0,1,.46-.91Q20.43,45,26.89,35a1.78,1.78,0,0,1,1.56-1,17.14,17.14,0,0,0,5.25-1.39L33.2,34.7a54.44,54.44,0,0,1-1.33,7.06c-.45,1.89-.88,3.79-1.31,5.68a2.55,2.55,0,0,1-1.08,1.62,49.74,49.74,0,0,1-11.47,6A12.31,12.31,0,0,1,15.49,55.65Z"/><path class="cls-2" d="M.53,36.76A31.41,31.41,0,0,1,4.1,26.55c2-3.85,2-3.84,6.23-4.88L19,19.56c1.14-.28,1.13-.28.9.85-.29,1.47-.55,2.94-.83,4.41-.36.71-1.08,1-1.69,1.37-5.12,3.31-10.21,6.66-15.33,10C1.6,36.45,1.17,36.89.53,36.76Z"/><path class="cls-2" d="M36.81,42.31q.93-6.1,1.85-12.19a.82.82,0,0,1,.33-.59,37.24,37.24,0,0,0,4-3.41c.93,2.12,1.81,4.16,2.7,6.18.23.52-.39.75-.36,1.19a3.58,3.58,0,0,1-.55.94,86,86,0,0,1-6.34,7.19,3.72,3.72,0,0,1-1.18.9C37.06,42.6,36.77,42.75,36.81,42.31Z"/><path class="cls-3" d="M.8,48.38A13.65,13.65,0,0,0,3,52.71a10.9,10.9,0,0,0,2.63,2.15c.5.32.74.07,1-.34q7-9.31,14-18.59c.12-.16.26-.3.4-.44a1.34,1.34,0,0,1,.72,1.23,1.32,1.32,0,0,1-.37.91Q14.26,47.8,7,57.94c-.6.84-.88.9-1.74.32A10.64,10.64,0,0,1,.49,50.68c0-.16,0-.34-.11-.47l0-.55C.22,49.14.2,48.65.8,48.38Z"/><path class="cls-2" d="M11.85,16.55c-.13,0-.31.08-.39,0s0-.27.12-.37c.72-.75,1.43-1.5,2.18-2.23a64.26,64.26,0,0,1,6.5-5.53,1.23,1.23,0,0,1,1.37-.19c1.64.65,3.31,1.24,5,1.85-.05.44-.42.56-.6.83a21.83,21.83,0,0,1-2.68,3.48,2.07,2.07,0,0,1-1.37.56l-9,1.65C12.58,16.7,12.23,16.5,11.85,16.55Z"/><path class="cls-4" d="M.38,50.22a19.49,19.49,0,0,0,2.08,5,10.39,10.39,0,0,0,3.17,3c.41.25.67.31,1-.15Q14.18,47.4,21.75,36.74q.06-.18.18,0c.74.33.84.69.34,1.43Q14.61,49.45,7,60.81c-.42.62-.72.7-1.33.28A12,12,0,0,1,1,54.15,11.47,11.47,0,0,1,.38,50.22Z"/><path class="cls-4" d="M33,37.12c.47.06.35.34.29.67Q32,44.41,30.7,51a6.83,6.83,0,0,0-.14,1c-.09,1.91-1.13,3.06-2.69,4.11C23.58,59,19.15,61.51,14,62.42a1,1,0,0,1-.25,0,13,13,0,0,1,1.06-2c.2-.42.69-.75.48-1.32,0-.29.21-.34.41-.42A34.61,34.61,0,0,0,26,54c.83-.51,1.6-1.11,2.44-1.6A3,3,0,0,0,30,50.27c.83-4.1,1.81-8.16,2.66-12.25A1.44,1.44,0,0,1,33,37.12Z"/><path class="cls-3" d="M33,37.12c-.95,4.48-1.91,9-2.84,13.45A2.73,2.73,0,0,1,29,52.39a42.38,42.38,0,0,1-12.67,6.4,4.74,4.74,0,0,1-.59.09.47.47,0,0,1,0-.48,19.77,19.77,0,0,1,2.22-3.55,51.49,51.49,0,0,0,11.42-6,2.16,2.16,0,0,0,1-1.42c.89-4.17,2-8.28,2.75-12.49,0-.09.11-.17.16-.25C33.52,35.53,33.06,36.31,33,37.12Z"/><path class="cls-3" d="M.53,36.76c3.55-2.08,6.93-4.44,10.39-6.66,2.73-1.75,5.45-3.52,8.17-5.28l-.19,1.81a3.11,3.11,0,0,1-1.16,1.08q-8,5.34-15.84,10.77a2.46,2.46,0,0,1-1.34.61c-.38-.4,0-.8,0-1.2S.88,37.13.53,36.76Z"/><path class="cls-1" d="M153,51.44a3.25,3.25,0,0,1-3.33-3.27,3.22,3.22,0,0,1,3.25-3.23,3.25,3.25,0,1,1,.08,6.51Z"/><path class="cls-2" d="M46.53,23.41a1.42,1.42,0,0,1,.12-1.87,21.3,21.3,0,0,0,1.61-2.77c.22-.43.42-.51.85-.34a25.29,25.29,0,0,0,2.44.91c.72.21,1,.52.63,1.26a3.26,3.26,0,0,0-.19.77c.14.43-.16.76-.27,1.13a37.24,37.24,0,0,1-2.14,4.62c-.16.32-.31.73-.72.76s-.59-.39-.74-.72C47.55,25.92,46.69,24.81,46.53,23.41Z"/><path class="cls-4" d="M.56,39.1,18.91,26.63a2.12,2.12,0,0,1-1.16,2.3C12.13,32.88,6.56,36.87,1,40.85l-.46.3C.28,40.4.94,39.75.56,39.1Z"/><path class="cls-2" d="M25.53,5.3c-.31-.25,0-.32.13-.39a44.79,44.79,0,0,1,6.13-3c.21-.08.51-.33.68.06q.65,1.52,1.27,3c0,.05-.1.16-.16.24a17.46,17.46,0,0,1-3,2,.64.64,0,0,1-.58.07,41.8,41.8,0,0,1-4.17-1.68C25.72,5.59,25.67,5.4,25.53,5.3Z"/><path class="cls-3" d="M36.81,42.31c.54.26.77-.23,1-.49a69.24,69.24,0,0,0,6.08-6.75,10.39,10.39,0,0,1,.76-.78c.69.1.72.61.73,1.14,0,1.08-.82,1.75-1.39,2.49a59,59,0,0,1-6.4,7.32c-.27.25-.49.67-1,.51,0,0,0,0,0-.07a.39.39,0,0,1,0-.1A8.56,8.56,0,0,0,36.81,42.31Z"/><path class="cls-4" d="M36.64,45.58c.25.18.37-.06.49-.18a65.77,65.77,0,0,0,8.1-9.57,1.08,1.08,0,0,0,.1-.28c0-.12.08-.13.17,0,.61,1.25-.05,2.16-.73,3.15a71.72,71.72,0,0,1-7.24,9c-.23.24-.47.45-1,.91A4.85,4.85,0,0,0,36.64,45.58Z"/><path class="cls-5" d="M12.87,16.38l9-1.64a2.64,2.64,0,0,0,1.87-1.17A13.58,13.58,0,0,1,26,10.94c.39.27.28.54,0,.8-.15.9-1,1.32-1.46,2-1.81,2.45-1.84,2.42-4.85,2.91-2.3.38-4.58.93-6.9,1.2-.83-.24-.89-.39-.41-1C12.5,16.66,12.7,16.55,12.87,16.38Z"/><path class="cls-2" d="M35.65.67A27.94,27.94,0,0,1,40.48,0c.57,0,.82.13.59.71-.31.78-.11,1.72-.78,2.38a9.68,9.68,0,0,1-3.07.85.63.63,0,0,1-.73-.41,8.15,8.15,0,0,1-.94-2.09C35.56,1.18,35.44.9,35.65.67Z"/><path class="cls-2" d="M53,11.14c.55-.11.66.18.67.66a30.51,30.51,0,0,1-.31,4.36c-.08.2-.23.4-.43.32-1.1-.4-2.34-.51-3.14-1.53a24.23,24.23,0,0,0,.41-3C50.94,11.17,52,11.25,53,11.14Z"/><path class="cls-4" d="M12.69,17.59l9.46-1.72a1.4,1.4,0,0,0,1-.65A27.45,27.45,0,0,1,26,11.74c.25.35.09.59-.17.86A20.38,20.38,0,0,0,23,16.16c-.43.72-1.11.75-1.8.88L11,19c0-.44.92-.78.08-1.2C11.57,17.29,12.18,17.87,12.69,17.59Z"/><path class="cls-6" d="M143.38,15.76a2,2,0,0,0-1.17-.2q-12.15,0-24.31,0a11.11,11.11,0,0,0-2.07.31c-.3.06-.58.2-.83-.08a11,11,0,0,1,4-.62q11.87,0,23.74,0C143.06,15.18,144,14.8,143.38,15.76Z"/><path class="cls-2" d="M49.54,7.5c.53-1.06,1.68-1.38,2.48-2.17a10.5,10.5,0,0,1,1.25,3.21c.06.24,0,.39-.24.42a3.9,3.9,0,0,1-2.42.72c-.82.06-.86-.67-1-1.24C49.54,8.12,49.76,7.8,49.54,7.5Z"/><path class="cls-4" d="M52,23a8.24,8.24,0,0,1-.85,3.31,28,28,0,0,1-2.37,5.4L46.21,26a.68.68,0,0,1,.31-1c.53,0,.57.48.76.8a34.57,34.57,0,0,0,1.66,3.32,26.16,26.16,0,0,0,2.24-5,2.66,2.66,0,0,1,.41-1A.57.57,0,0,1,52,23Z"/><path class="cls-7" d="M43.28.64c0-.41.17-.53.56-.44.55.13,1.12.2,1.67.34,1.56.41,1.59.51.7,1.88-.2.31-.44.59-.66.88A2.62,2.62,0,0,1,43,3.18a.62.62,0,0,1-.18-.63A5,5,0,0,1,43.28.64Z"/><path class="cls-8" d="M51.78,23.25A35.12,35.12,0,0,1,49,29.73c-1.06-1.52-1.45-3.28-2.45-4.7,0-.54-.47-1.08,0-1.62.63,1.28,1.26,2.57,1.91,3.84.1.19.13.52.43.46.14,0,.27-.28.35-.45.78-1.61,1.56-3.23,2.34-4.85A.71.71,0,0,1,51.78,23.25Z"/><path class="cls-9" d="M47.08,4c.23-.37.44-.74.68-1.1.8-1.23.8-1.24,1.93-.34.36.29.68.63,1,.93s.25.6-.15.79a1.92,1.92,0,0,1-.67.76c-.22.14-.46.27-.69.4A1.44,1.44,0,0,1,47.08,4Z"/><path class="cls-10" d="M17.9,54.85c-.57,1.43-1.56,2.64-2.22,4l-.41.18a6.54,6.54,0,0,1-1.79.23c.53-1.31,1.59-2.31,2-3.64A8.62,8.62,0,0,1,17.9,54.85Z"/><path class="cls-8" d="M25.53,5.3c1.35.54,2.72,1,4,1.65A1.28,1.28,0,0,0,31,6.77a11.77,11.77,0,0,1,2.57-1.5.65.65,0,0,1-.19.8c-.93.81-2.06,1.32-3,2.06a.84.84,0,0,1-.86.07c-1.38-.58-2.77-1.14-4.11-1.8a.66.66,0,0,1-.25-.3C24.9,5.66,25.73,5.73,25.53,5.3Z"/><path class="cls-11" d="M103.55,49.76c-.46.06-.22-.3-.22-.43q0-16,0-31.95c0-.28-.1-.62.27-.79,0,3.22,0,6.43,0,9.65Q103.54,38,103.55,49.76Z"/><path class="cls-12" d="M140.77,46.17c.52-.6,0-1.37.32-2,0,0,.06.06.06.09.23,2.33.23,2.33-2.12,2.33q-13.53,0-27.06,0c-.48,0-1,.21-1.44-.06a.1.1,0,0,1,.06-.13,2.2,2.2,0,0,1,1.09-.09h28c.36,0,.74.12,1.07-.12Z"/><path class="cls-1" d="M140.78,46.17c-.32.38-.75.21-1.13.21H110.58c.31-.4.74-.19,1.1-.19Z"/><path class="cls-3" d="M49.76,15a31.88,31.88,0,0,0,3,1.32c.23.11.38,0,.55-.12l-.2,1.79a.3.3,0,0,1-.34.15,7.42,7.42,0,0,1-3.23-1.56Z"/><path class="cls-13" d="M25.14,6.11c1.39.58,2.78,1.14,4.15,1.77a1.18,1.18,0,0,0,1.37-.15A11.74,11.74,0,0,1,33.4,6.07c.08.45-.28.54-.56.72-.81.53-1.65,1-2.41,1.61A1.18,1.18,0,0,1,29,8.54c-1.27-.61-2.52-1.23-3.82-1.77C24.63,6.53,24.9,6.36,25.14,6.11Z"/><path class="cls-4" d="M49.57,16.54a26,26,0,0,0,3.56,1.41c-.36,1.43-.36,1.43-1.77.75a4.7,4.7,0,0,0-.74-.32C49.65,18.11,49.07,17.64,49.57,16.54Z"/><path class="cls-14" d="M49.76,8.29c.16,1.18.88,1.29,1.84,1,.47-.14,1-.22,1.43-.32-.28.37.29.8-.07,1.17a4.49,4.49,0,0,1-2.45.76c-.57.09-.86-.26-1-.78s-.32-.82-.12-1.27A.56.56,0,0,1,49.76,8.29Z"/><path class="cls-15" d="M103.56,16.63c-.13-.42.31-.62.45-1H97.68c-.26.37.7.54.18,1a3.48,3.48,0,0,1-.52-.45.8.8,0,0,1-.23-.74c.12-.36.45-.2.69-.21,1.94,0,3.88,0,5.82,0,.29,0,.71-.23.86.23s-.29.54-.5.78S103.7,16.49,103.56,16.63Z"/><path class="cls-4" d="M49.49,8.76c.3,2,.3,2,2.2,1.63L53,10.13a1.32,1.32,0,0,0-.16,1c-.7.18-1.4.32-2.11.48-.43.1-.85.15-1.15-.29a15.49,15.49,0,0,0-.38-1.53,1,1,0,0,1,.18-1.09C49.43,8.61,49.48,8.64,49.49,8.76Z"/><path class="cls-16" d="M43.28.64c0,.19-.06.39-.08.58,0,.6-.63,1.43-.1,1.74a2.7,2.7,0,0,0,2.45.34,3.16,3.16,0,0,1-.63,1A3.24,3.24,0,0,1,42.65,4c-.33-.1-.34-.44-.17-.74C42.77,2.41,42.41,1.34,43.28.64Z"/><path class="cls-17" d="M35.65.67v.79c.22.7.64,1.3.9,2s.65.71,1.26.58,1.36-.59,2.08-.1a.58.58,0,0,1-.59.57l-.6,0c-.73,0-1.73.87-2.1.22-.67-1.18-1.7-2.4-1.1-4C35.5.71,35.6.7,35.65.67Z"/><path class="cls-18" d="M47.08,4c.4,1.28,1.23,1.63,2.36,1a3.23,3.23,0,0,1,.47-.17c.32-.09.33.14.37.34-.36.78-1.16,1-1.8,1.46-.34.23-.65,0-.87-.27-.37-.39-.95-.65-.91-1.33C47.07,4.82,46.74,4.3,47.08,4Z"/><path class="cls-19" d="M39.88,3.91a5.89,5.89,0,0,0-2.14.39c-.66.25-1,0-1.18-.57a8.75,8.75,0,0,1-.92-2.28c.68.64.53,2,1.55,2.2a8.19,8.19,0,0,0,2.7-.54,2.49,2.49,0,0,1,.4,0C40.12,3.34,40.17,3.71,39.88,3.91Z"/><path class="cls-20" d="M46.7,5.08c.28.55.86.82,1.23,1.29.22.29.43.21.68,0,.51-.37,1-.72,1.55-1.08.09-.15.16-.33.39-.22-.16.51-2.15,2.29-2.54,2.18-.64-.18-1-.8-1.42-1.22S46.51,5.39,46.7,5.08Z"/><path class="cls-21" d="M154.31,18.52c0,.1-.18.28-.18.23,0-.61-.25-1.26.27-1.8s.19-.57-.28-.57c-1.43,0-2.87,0-4.3,0-.51,0-.49.22-.4.63s.63,1,.27,1.58c-1.16-2.45-1.16-2.45,1.48-2.45h3.31c.19,0,.43-.07.55.13a.48.48,0,0,1-.16.63A1.77,1.77,0,0,0,154.31,18.52Z"/><path class="cls-21" d="M192.94,19.19c-.39-.71.16-1.27.36-1.84.3-.84.07-1-.75-1-1.1.06-2.2,0-3.3,0-.59,0-1.13-.06-.9.8-.27-.21-.56-.45-.44-.82s.52-.21.79-.21c1.57,0,3.14,0,4.71,0,.54,0,.63.16.43.64C193.52,17.56,193.24,18.38,192.94,19.19Z"/><path class="cls-22" d="M21.94,36.72l-.18,0c0-.53-.65-.72-.64-1.26l.82-1.19c0,.07,0,.17,0,.19C23,35.23,22.38,36,21.94,36.72Z"/><path class="cls-17" d="M42.48,3.28c0,.28,0,.56.45.62.67.1,1.33.28,2,.42-.12.49-.39.66-.88.46a3.26,3.26,0,0,0-1-.25C42.08,4.47,42.11,4,42.48,3.28Z"/><path class="cls-22" d="M45.5,35.5l-.17,0a2.34,2.34,0,0,0-.65-1.26,1.11,1.11,0,0,1,.64-.81C45.77,34.12,46.17,34.76,45.5,35.5Z"/><path class="cls-23" d="M.8,48.38c-.16.42-.53.78-.45,1.28Q.18,48.44,0,47.21a.6.6,0,0,1,.37-.64Z"/><path class="cls-24" d="M12.69,17.59c-.51.33-1.08.15-1.62.17.12-.5.89-.57.78-1.22.3-.27.67-.12,1-.17,0,.38-.3.55-.5.8C11.91,17.76,12.54,17.49,12.69,17.59Z"/><path class="cls-25" d="M49.54,11.33c.71.49,1.4,0,2.09-.08.39,0,.77-.11,1.16-.12a.47.47,0,0,1,.18,0c-.88.48-1.91.44-2.81.85C50.05,11.68,49.49,11.8,49.54,11.33Z"/><path class="cls-26" d="M51.78,23.25l-.23-.84.43-1c.39.06.33.3.24.58s-.16.7-.24,1Z"/><path class="cls-27" d="M50.54,5.1l-.39.22a.45.45,0,0,0-.25-.44,1.39,1.39,0,0,1,.67-.57C50.61,4.57,51,4.85,50.54,5.1Z"/><path class="cls-28" d="M49.49,8.76l-.15-.05c-.15-.44.39-.76.2-1.21.29.21.21.51.21.79Z"/><path class="cls-29" d="M139.1,20.17H118.29v-.1h20.85Z"/></g></g></svg>